<svg width="99" height="99" viewBox="0 0 99 99" fill="none" xmlns="http://www.w3.org/2000/svg">
<path fill-rule="evenodd" clip-rule="evenodd" d="M12.1992 43.9312L3.71249 35.419C19.5826 19.544 41.4358 13.4579 61.9313 17.118L56.8817 28.5243C41.0115 26.5665 24.4201 31.6738 12.1992 43.9312ZM96.525 35.4482L87.9772 43.9312C82.763 38.7566 76.7796 34.8968 70.3687 32.2671L72.6339 20.3062C81.3526 23.4873 89.5158 28.4921 96.525 35.4482ZM71.2389 60.8061L79.6502 52.13C76.2857 48.6596 72.5007 45.97 68.4632 43.9312L66.1502 56.5982C67.9165 57.7695 69.6408 59.1576 71.2389 60.8061ZM29.1288 60.8062L20.5874 52.1695C29.1715 43.4895 40.5742 39.3871 51.8061 39.7326L46.3397 52.1695C40.0617 53.0763 33.9546 55.9264 29.1288 60.8062Z" fill="#0062FF"/>
<path d="M66.5782 18.6188C65.8632 18.6188 65.2325 18.9986 64.8539 19.5891L64.5595 20.222L42.7744 69.3704C42.1016 70.5938 41.681 71.9438 41.681 73.4204C41.681 78.1032 45.4661 81.9001 50.1343 81.9001C54.1717 81.9001 57.5783 79.0313 58.3773 75.1922L58.4194 75.0657L68.681 20.7282C68.681 19.5469 67.7558 18.6188 66.5782 18.6188Z" fill="#0062FF"/>
<path fill-rule="evenodd" clip-rule="evenodd" d="M50.5399 82.7437C45.6376 82.7437 41.681 78.5978 41.681 73.4624C41.681 68.3271 45.6376 64.1812 50.5399 64.1812C55.4431 64.1812 59.3997 68.3271 59.3997 73.4624C59.3997 78.5978 55.4431 82.7437 50.5399 82.7437Z" fill="#FF6E27"/>
</svg>
