<svg width="99" height="99" viewBox="0 0 99 99" fill="none" xmlns="http://www.w3.org/2000/svg">
<path fill-rule="evenodd" clip-rule="evenodd" d="M47.6438 8.6626C25.443 8.6626 7.425 26.6806 7.425 48.8813C7.425 71.0821 25.443 89.1001 47.6438 89.1001C54.9898 89.1001 61.8778 87.1273 67.8067 83.6831C66.966 81.8962 66.4963 79.8987 66.4963 77.789C66.4963 70.1385 72.6713 63.9634 80.3219 63.9634C81.8341 63.9634 83.2888 64.2047 84.6495 64.6511C86.7176 59.808 87.8625 54.4776 87.8625 48.8813C87.8625 26.6806 69.8445 8.6626 47.6438 8.6626ZM53.3145 81.0563V73.3746C60.3125 72.0473 65.8225 68.0255 65.8627 60.6654C65.8627 50.5303 57.1755 47.0313 49.0513 44.9399C40.9271 42.8485 38.3129 40.6365 38.3129 37.2581C38.3129 33.3971 41.9326 30.6623 47.9654 30.6623C54.3199 30.6623 56.6928 33.7189 56.8939 38.1832H64.7768C64.5355 32.0297 60.7952 26.3588 53.3145 24.549V16.7063H42.5761V24.4686C35.6584 25.9567 30.068 30.4612 30.068 37.3788C30.068 45.6236 36.9052 49.7259 46.8795 52.1391C55.8483 54.2707 57.6179 57.4077 57.6179 60.7459C57.6179 63.1992 55.8483 67.1407 47.9654 67.1407C40.6053 67.1407 37.7096 63.8427 37.3074 59.6198H29.4245C29.8669 67.4222 35.6987 71.8463 42.5761 73.2941V81.0563H53.3145Z" fill="#0062FF"/>
<path fill-rule="evenodd" clip-rule="evenodd" d="M80.9502 87.8433C75.7339 87.8433 71.5237 83.633 71.5237 78.4173C71.5237 73.2011 75.7339 68.9907 80.9502 68.9907C86.1659 68.9907 90.3761 73.2011 90.3761 78.4173C90.3761 83.633 86.1659 87.8433 80.9502 87.8433Z" fill="#FF6E27"/>
</svg>
