<svg width="152" height="60" viewBox="0 0 152 60" fill="none" xmlns="http://www.w3.org/2000/svg">
<g clip-path="url(#clip0_12_2093)">
<path fill-rule="evenodd" clip-rule="evenodd" d="M100.175 36.5718C93.0841 46.7558 78.1321 55.843 66.4187 55.843C54.7051 55.843 47.6925 48.1188 47.0106 38.6549H46.2326C45.1289 50.9385 51.7971 59.8478 64.15 59.8478C76.5029 59.8478 92.7056 49.6811 100.559 36.5718H100.175ZM85.8988 0.0625C97.8183 0.0625 105.036 9.12051 103.788 21.5637L103.051 21.5394C102.46 12.0944 94.7499 4.51227 83.5952 4.51227C72.9327 4.51227 62.255 10.6701 54.909 18.7999H53.9484C62.0766 7.80143 74.3642 0.0625 85.8988 0.0625Z" fill="white"/>
<path fill-rule="evenodd" clip-rule="evenodd" d="M103 25C105.209 25 107 26.7912 107 29C107 31.2089 105.209 33 103 33C100.792 33 99 31.2089 99 29C99 26.7912 100.792 25 103 25Z" fill="#FF6E27"/>
<path fill-rule="evenodd" clip-rule="evenodd" d="M140.762 25.3018L141.339 21.9899H144.044L144.7 19.0461L149.689 17.7058L148.744 21.9899H152L151.422 25.3018H147.983L147.168 29.1129C146.906 30.3395 146.775 31.1282 146.775 31.4787C146.775 32.495 147.291 33.0031 148.324 33.0031C148.622 33.0031 149.129 32.8717 149.847 32.6087L149.322 35.7368C148.219 35.912 147.239 35.9995 146.381 35.9995C145.085 35.9995 144.061 35.6841 143.308 35.0532C142.468 34.3525 142.048 33.3186 142.048 31.9517C142.048 31.3909 142.188 30.4535 142.468 29.1393L143.283 25.3018H140.762ZM130.315 27.5358H136.119C136.119 25.7312 135.349 24.8287 133.808 24.8287C132.863 24.8287 132.066 25.1178 131.418 25.6962C130.876 26.1691 130.508 26.7826 130.315 27.5358ZM137.983 31.8993L137.379 35.2374C135.699 35.7453 134.106 35.9995 132.6 35.9995C130.394 35.9995 128.652 35.3864 127.374 34.1595C126.167 33.0206 125.563 31.5488 125.563 29.7439C125.563 27.7812 126.167 26.0378 127.374 24.513C128.88 22.6206 131.007 21.6745 133.756 21.6745C135.664 21.6745 137.16 22.1476 138.246 23.094C139.453 24.1277 140.057 25.6434 140.057 27.6411C140.057 28.3421 139.944 29.2006 139.716 30.2168H130.027C130.097 31.9692 131.322 32.8454 133.703 32.8454C135.243 32.8454 136.67 32.5297 137.983 31.8993ZM108.736 35.6841L110.863 25.5644C111.125 24.3031 111.318 23.1115 111.44 21.9899H115.826L115.458 24.2239H115.511C117.034 22.5244 118.793 21.6745 120.789 21.6745C122.119 21.6745 123.16 22.117 123.914 23.0021C124.666 23.8866 125.043 25.0213 125.043 26.4055C125.043 27.0892 124.92 28.0527 124.675 29.2968L123.414 35.6841H118.53L119.843 29.2706C120.053 28.2368 120.158 27.5445 120.158 27.1945C120.158 26.1252 119.546 25.5998 118.32 25.6173C116.5 25.6521 115.327 26.9048 114.802 29.3758L113.462 35.6841H108.736ZM86.8085 31.4791C86.8085 31.8296 86.9573 32.1449 87.2552 32.4253C87.5526 32.7058 87.9374 32.8458 88.4106 32.8458C89.3909 32.8458 90.1875 32.5483 90.8001 31.9525C91.4126 31.3565 91.8065 30.5767 91.9817 29.613C91.8243 29.5778 91.4041 29.5516 90.7212 29.534C89.5835 29.4993 88.6468 29.6653 87.9112 30.0334C87.1763 30.4015 86.8085 30.8836 86.8085 31.4791ZM91.3513 35.6846L91.5613 33.7659L91.5092 33.7135V33.7659C90.5638 35.2555 89.0318 36 86.9138 36C83.8677 36 82.3445 34.6771 82.3445 32.0312C82.3445 30.4191 83.0801 29.1572 84.5505 28.246C85.8986 27.4225 87.675 27.0106 89.881 27.0106C90.4935 27.0106 91.3428 27.0545 92.4278 27.142C92.4633 27.0198 92.4805 26.8354 92.4805 26.5902C92.4805 26.0821 92.2487 25.6613 91.7849 25.3286C91.3206 24.9955 90.7125 24.8292 89.9599 24.8292C88.3841 24.8292 86.9051 25.1881 85.5219 25.9069L85.9947 22.4635C87.535 21.9377 89.2067 21.675 91.0099 21.675C92.7784 21.675 94.1785 22.0253 95.2115 22.7264C96.3672 23.5324 96.9449 24.7326 96.9449 26.3273C96.9449 27.0633 96.7258 28.3773 96.2883 30.2698C95.7456 32.5483 95.3865 34.3531 95.2115 35.6846H91.3513ZM82.166 31.9258L81.483 35.4744C80.4325 35.8248 79.0847 36 77.4392 36C75.4959 36 73.9204 35.3869 72.7125 34.1603C71.5571 32.9859 70.9796 31.5139 70.9796 29.7443C70.9796 27.4664 71.8026 25.5519 73.4481 24.0011C75.0935 22.4501 77.2114 21.675 79.8022 21.675C81.2029 21.675 82.6385 21.9816 84.109 22.595L83.0851 25.8805C82.0171 25.3899 81.0016 25.1444 80.039 25.1444C78.7961 25.1444 77.7981 25.521 77.0455 26.2749C76.2576 27.0809 75.8636 28.1762 75.8636 29.5605C75.8636 30.4015 76.1613 31.1069 76.7566 31.6765C77.3518 32.2456 78.1396 32.5306 79.1199 32.5306C80.1701 32.5306 81.1854 32.3286 82.166 31.9258ZM63.4218 35.6846L66.2578 21.9904H71.0372L68.2009 35.6846H63.4218ZM55.3131 21.9904H59.6982L59.173 24.803H59.2254C59.6458 23.9266 60.2057 23.2082 60.906 22.6474C61.6938 21.9992 62.5427 21.675 63.4531 21.675C64.2407 21.675 64.9059 21.7885 65.4486 22.0167L64.3723 26.1959C63.8821 25.8102 63.1557 25.6177 62.1926 25.6177C60.3722 25.6177 59.1991 26.8704 58.674 29.3764L57.3349 35.6846H52.6082L54.7351 25.565C54.9977 24.3032 55.1903 23.112 55.3131 21.9904ZM43.3174 27.5364H49.1207C49.1207 25.7317 48.3503 24.8292 46.81 24.8292C45.8644 24.8292 45.0681 25.1182 44.4202 25.6962C43.8776 26.1696 43.5099 26.7831 43.3174 27.5364ZM50.9851 31.8998L50.3812 35.2377C48.7005 35.7459 47.1076 36 45.6021 36C43.3961 36 41.6542 35.3869 40.3762 34.1603C39.1687 33.021 38.5646 31.5491 38.5646 29.7443C38.5646 27.7818 39.1687 26.0379 40.3762 24.5134C41.8817 22.621 44.0088 21.675 46.7573 21.675C48.6655 21.675 50.1622 22.1482 51.2475 23.0941C52.4559 24.1283 53.0596 25.644 53.0596 27.6416C53.0596 28.3426 52.9457 29.2011 52.7179 30.2173H43.0286C43.0985 31.9697 44.3239 32.8458 46.705 32.8458C48.2454 32.8458 49.6721 32.5306 50.9851 31.8998ZM14.4639 35.6846L16.5907 25.565C16.8533 24.3032 17.046 23.112 17.1687 21.9904H21.3698L20.8447 24.4874L20.8972 24.4611C22.1402 22.6035 23.7509 21.675 25.7289 21.675C26.5866 21.675 27.3395 21.9027 27.9872 22.3582C28.7048 22.8663 29.1514 23.5674 29.3264 24.4611C30.5695 22.6035 32.1972 21.675 34.2105 21.675C35.4009 21.675 36.3725 21.9727 37.1252 22.5685C38.0182 23.287 38.4645 24.3474 38.4645 25.7489C38.4645 26.7831 38.3593 27.8081 38.1494 28.8243L36.7315 35.6846H32.0049L33.3704 29.0344C33.5455 28.1762 33.6329 27.5102 33.6329 27.037C33.6329 26.0906 33.1252 25.6177 32.1098 25.6177C31.252 25.6177 30.578 26.0557 30.088 26.9321C29.7903 27.4577 29.5278 28.2724 29.3 29.3764L27.9609 35.6846H23.2344L24.5998 29.0344C24.7748 28.1762 24.8624 27.5102 24.8624 27.037C24.8624 26.0906 24.3547 25.6177 23.3393 25.6177C22.4816 25.6177 21.8075 26.0557 21.3174 26.9321C21.0198 27.4577 20.7573 28.2724 20.5298 29.3764L19.1905 35.6846H14.4639ZM4.46402 31.4791C4.46402 31.8296 4.6129 32.1449 4.9105 32.4253C5.2081 32.7058 5.59314 32.8458 6.06578 32.8458C7.04633 32.8458 7.84272 32.5483 8.45541 31.9525C9.0681 31.3565 9.46196 30.5767 9.63715 29.613C9.47945 29.5778 9.05928 29.5516 8.37649 29.534C7.2387 29.4993 6.30225 29.6653 5.56684 30.0334C4.83173 30.4015 4.46402 30.8836 4.46402 31.4791ZM66.6956 20.8725L67.4514 17H71.9558L71.1999 20.8725H66.6956ZM9.00682 35.6846L9.21698 33.7659L9.16451 33.7135V33.7659C8.21909 35.2555 6.68744 36 4.56925 36C1.52314 36 0 34.6771 0 32.0312C0 30.4191 0.73526 29.1572 2.20563 28.246C3.55373 27.4225 5.33067 27.0106 7.5363 27.0106C8.14929 27.0106 8.99815 27.0545 10.0835 27.142C10.1186 27.0198 10.1361 26.8354 10.1361 26.5902C10.1361 26.0821 9.90418 25.6613 9.44022 25.3286C8.97625 24.9955 8.36797 24.8292 7.61507 24.8292C6.03977 24.8292 4.56043 25.1881 3.1772 25.9069L3.65014 22.4635C5.19046 21.9377 6.86247 21.675 8.66557 21.675C10.4337 21.675 11.8343 22.0253 12.867 22.7264C14.0224 23.5324 14.6001 24.7326 14.6001 26.3273C14.6001 27.0633 14.3811 28.3773 13.9436 30.2698C13.401 32.5483 13.0422 34.3531 12.867 35.6846H9.00682Z" fill="white"/>
</g>
<defs>
<clipPath id="clip0_12_2093">
<rect width="152" height="60" fill="white"/>
</clipPath>
</defs>
</svg>
