<svg width="99" height="99" viewBox="0 0 99 99" fill="none" xmlns="http://www.w3.org/2000/svg">
<path d="M12.375 28.4624C12.375 25.0452 15.1453 22.2749 18.5625 22.2749H80.4375C83.8547 22.2749 86.625 25.0452 86.625 28.4624V34.6499H12.375V28.4624Z" fill="#0062FF"/>
<path d="M12.375 47.0249H86.625V70.5374C86.625 73.9546 83.8547 76.7249 80.4375 76.7249H18.5625C15.1453 76.7249 12.375 73.9546 12.375 70.5374V47.0249Z" fill="#0062FF"/>
<path fill-rule="evenodd" clip-rule="evenodd" d="M77.0625 71.2124C74.8212 71.2124 73.0125 69.403 73.0125 67.162C73.0125 64.9212 74.8212 63.1123 77.0625 63.1123C79.3032 63.1123 81.1126 64.9212 81.1126 67.162C81.1126 69.403 79.3032 71.2124 77.0625 71.2124Z" fill="#FF6D23"/>
</svg>
