<svg width="80" height="80" viewBox="0 0 80 80" fill="none" xmlns="http://www.w3.org/2000/svg">
<path d="M66.9 16.4333C70.0001 19.5245 72.4588 23.1978 74.1349 27.2421C75.811 31.2864 76.6714 35.6221 76.6667 40C76.6667 49.2 72.9333 57.5333 66.9 63.5666L62.2 58.8666C64.6848 56.3951 66.6539 53.4546 67.9929 50.2159C69.3318 46.9771 70.0141 43.5046 70 40C70 32.6333 67.0333 25.9333 62.2 21.1333L66.9 16.4333ZM57.4667 25.8666C59.3273 27.7199 60.8035 29.9225 61.8103 32.3479C62.817 34.7734 63.3347 37.3739 63.3333 40C63.3333 45.5 61.1 50.5 57.4667 54.1333L52.7667 49.4333C54.0059 48.1952 54.9884 46.7246 55.6577 45.1057C56.327 43.4868 56.6699 41.7517 56.6667 40C56.6667 36.3 55.1667 32.9666 52.7667 30.5666L57.4667 25.8666ZM43.3333 33.3333C45.1014 33.3333 46.7971 34.0357 48.0474 35.2859C49.2976 36.5362 50 38.2319 50 40C50 41.7681 49.2976 43.4638 48.0474 44.714C46.7971 45.9643 45.1014 46.6666 43.3333 46.6666C41.5652 46.6666 39.8695 45.9643 38.6193 44.714C37.369 43.4638 36.6667 41.7681 36.6667 40C36.6667 38.2319 37.369 36.5362 38.6193 35.2859C39.8695 34.0357 41.5652 33.3333 43.3333 33.3333ZM38.3333 3.33331C40.5435 3.33331 42.6631 4.21129 44.2259 5.77409C45.7887 7.33689 46.6667 9.45651 46.6667 11.6666V26.6666H40V13.3333H9.99999V63.3333H40V53.3333H46.6667V68.3333C46.6667 70.5435 45.7887 72.6631 44.2259 74.2259C42.6631 75.7887 40.5435 76.6666 38.3333 76.6666H11.6667C9.45652 76.6666 7.33691 75.7887 5.77411 74.2259C4.2113 72.6631 3.33333 70.5435 3.33333 68.3333V11.6666C3.33333 9.45651 4.2113 7.33689 5.77411 5.77409C7.33691 4.21129 9.45652 3.33331 11.6667 3.33331H38.3333Z" fill="#FF6D23"/>
<path fill-rule="evenodd" clip-rule="evenodd" d="M44.2259 5.77409C42.6631 4.21129 40.5435 3.33331 38.3333 3.33331H11.6667C9.45652 3.33331 7.33691 4.21129 5.77411 5.77409C4.2113 7.33689 3.33333 9.45651 3.33333 11.6666V68.3333C3.33333 70.5435 4.2113 72.6631 5.77411 74.2259C7.33691 75.7887 9.45652 76.6666 11.6667 76.6666H38.3333C40.5435 76.6666 42.6631 75.7887 44.2259 74.2259C45.7887 72.6631 46.6667 70.5435 46.6667 68.3333V53.3333H40V63.3333H9.99999V13.3333H40V26.6666H46.6667V11.6666C46.6667 9.45651 45.7887 7.33689 44.2259 5.77409Z" fill="#0062FF"/>
</svg>
